%TF.GenerationSoftware,KiCad,Pcbnew,9.0.4*%
%TF.CreationDate,2025-10-06T20:24:04-06:00*%
%TF.ProjectId,v1,76312e6b-6963-4616-945f-706362585858,rev?*%
%TF.SameCoordinates,Original*%
%TF.FileFunction,Soldermask,Top*%
%TF.FilePolarity,Negative*%
%FSLAX46Y46*%
G04 Gerber Fmt 4.6, Leading zero omitted, Abs format (unit mm)*
G04 Created by KiCad (PCBNEW 9.0.4) date 2025-10-06 20:24:04*
%MOMM*%
%LPD*%
G01*
G04 APERTURE LIST*
%ADD10R,2.000000X2.000000*%
%ADD11C,2.000000*%
%ADD12O,2.000000X1.200000*%
%ADD13C,1.600000*%
%ADD14R,1.700000X1.700000*%
%ADD15O,1.700000X1.700000*%
G04 APERTURE END LIST*
D10*
%TO.C,U3*%
X153670000Y-53340000D03*
D11*
X156210000Y-53340000D03*
X158750000Y-53340000D03*
X161290000Y-53340000D03*
X163830000Y-53340000D03*
X166370000Y-53340000D03*
%TD*%
D12*
%TO.C,U2*%
X161290000Y-72390000D03*
X161290000Y-74930000D03*
X161290000Y-77470000D03*
X161290000Y-80010000D03*
X161290000Y-82550000D03*
X161290000Y-85090000D03*
X161290000Y-87630000D03*
X161290000Y-90170000D03*
X161290000Y-92710000D03*
X161290000Y-95250000D03*
X161290000Y-97790000D03*
X161290000Y-100330000D03*
X161290000Y-102870000D03*
X161290000Y-105410000D03*
X161290000Y-107950000D03*
X186690000Y-107950000D03*
X186690000Y-105410000D03*
X186690000Y-102870000D03*
X186690000Y-100330000D03*
X186690000Y-97790000D03*
X186690000Y-95250000D03*
X186690000Y-92710000D03*
X186690000Y-90170000D03*
X186690000Y-87630000D03*
X186690000Y-85090000D03*
X186690000Y-82550000D03*
X186690000Y-80010000D03*
X186690000Y-77470000D03*
X186690000Y-74930000D03*
X186690000Y-72390000D03*
%TD*%
D13*
%TO.C,U1*%
X155595000Y-114230000D03*
X153055000Y-114230000D03*
X150515000Y-114230000D03*
X147975000Y-114230000D03*
X145435000Y-114230000D03*
%TD*%
%TO.C,J1*%
X138430000Y-109220000D03*
X138430000Y-106680000D03*
X138430000Y-104140000D03*
X138430000Y-101600000D03*
%TD*%
%TO.C,R2*%
X142240000Y-82550000D03*
X152400000Y-82550000D03*
%TD*%
%TO.C,R1*%
X138430000Y-88900000D03*
X148590000Y-88900000D03*
%TD*%
D14*
%TO.C,M1*%
X135890000Y-53340000D03*
D15*
X135890000Y-55880000D03*
X135890000Y-58420000D03*
X135890000Y-60960000D03*
X135890000Y-63500000D03*
X135890000Y-66040000D03*
X135890000Y-68580000D03*
X135890000Y-71120000D03*
X135890000Y-73660000D03*
X135890000Y-76200000D03*
%TD*%
D13*
%TO.C,U4*%
X189230000Y-53340000D03*
X189230000Y-55880000D03*
X189230000Y-58420000D03*
X189230000Y-60960000D03*
%TD*%
M02*
