%TF.GenerationSoftware,KiCad,Pcbnew,9.0.4*%
%TF.CreationDate,2025-10-06T20:24:09-06:00*%
%TF.ProjectId,v1,76312e6b-6963-4616-945f-706362585858,rev?*%
%TF.SameCoordinates,Original*%
%TF.FileFunction,Drillmap*%
%TF.FilePolarity,Positive*%
%FSLAX45Y45*%
G04 Gerber Fmt 4.5, Leading zero omitted, Abs format (unit mm)*
G04 Created by KiCad (PCBNEW 9.0.4) date 2025-10-06 20:24:09*
%MOMM*%
%LPD*%
G01*
G04 APERTURE LIST*
%ADD10C,0.100000*%
%ADD11C,0.200000*%
G04 APERTURE END LIST*
D10*
X13208000Y-4953000D02*
X19304000Y-4953000D01*
X19304000Y-11938000D01*
X13208000Y-11938000D01*
X13208000Y-4953000D01*
D11*
X13463777Y-12254484D02*
X13463777Y-12054484D01*
X13463777Y-12054484D02*
X13511396Y-12054484D01*
X13511396Y-12054484D02*
X13539967Y-12064008D01*
X13539967Y-12064008D02*
X13559015Y-12083055D01*
X13559015Y-12083055D02*
X13568539Y-12102103D01*
X13568539Y-12102103D02*
X13578062Y-12140198D01*
X13578062Y-12140198D02*
X13578062Y-12168769D01*
X13578062Y-12168769D02*
X13568539Y-12206865D01*
X13568539Y-12206865D02*
X13559015Y-12225912D01*
X13559015Y-12225912D02*
X13539967Y-12244960D01*
X13539967Y-12244960D02*
X13511396Y-12254484D01*
X13511396Y-12254484D02*
X13463777Y-12254484D01*
X13663777Y-12254484D02*
X13663777Y-12121150D01*
X13663777Y-12159246D02*
X13673301Y-12140198D01*
X13673301Y-12140198D02*
X13682824Y-12130674D01*
X13682824Y-12130674D02*
X13701872Y-12121150D01*
X13701872Y-12121150D02*
X13720920Y-12121150D01*
X13787586Y-12254484D02*
X13787586Y-12121150D01*
X13787586Y-12054484D02*
X13778062Y-12064008D01*
X13778062Y-12064008D02*
X13787586Y-12073531D01*
X13787586Y-12073531D02*
X13797110Y-12064008D01*
X13797110Y-12064008D02*
X13787586Y-12054484D01*
X13787586Y-12054484D02*
X13787586Y-12073531D01*
X13911396Y-12254484D02*
X13892348Y-12244960D01*
X13892348Y-12244960D02*
X13882824Y-12225912D01*
X13882824Y-12225912D02*
X13882824Y-12054484D01*
X14016158Y-12254484D02*
X13997110Y-12244960D01*
X13997110Y-12244960D02*
X13987586Y-12225912D01*
X13987586Y-12225912D02*
X13987586Y-12054484D01*
X14244729Y-12254484D02*
X14244729Y-12054484D01*
X14244729Y-12054484D02*
X14311396Y-12197341D01*
X14311396Y-12197341D02*
X14378062Y-12054484D01*
X14378062Y-12054484D02*
X14378062Y-12254484D01*
X14559015Y-12254484D02*
X14559015Y-12149722D01*
X14559015Y-12149722D02*
X14549491Y-12130674D01*
X14549491Y-12130674D02*
X14530443Y-12121150D01*
X14530443Y-12121150D02*
X14492348Y-12121150D01*
X14492348Y-12121150D02*
X14473301Y-12130674D01*
X14559015Y-12244960D02*
X14539967Y-12254484D01*
X14539967Y-12254484D02*
X14492348Y-12254484D01*
X14492348Y-12254484D02*
X14473301Y-12244960D01*
X14473301Y-12244960D02*
X14463777Y-12225912D01*
X14463777Y-12225912D02*
X14463777Y-12206865D01*
X14463777Y-12206865D02*
X14473301Y-12187817D01*
X14473301Y-12187817D02*
X14492348Y-12178293D01*
X14492348Y-12178293D02*
X14539967Y-12178293D01*
X14539967Y-12178293D02*
X14559015Y-12168769D01*
X14654253Y-12121150D02*
X14654253Y-12321150D01*
X14654253Y-12130674D02*
X14673301Y-12121150D01*
X14673301Y-12121150D02*
X14711396Y-12121150D01*
X14711396Y-12121150D02*
X14730443Y-12130674D01*
X14730443Y-12130674D02*
X14739967Y-12140198D01*
X14739967Y-12140198D02*
X14749491Y-12159246D01*
X14749491Y-12159246D02*
X14749491Y-12216388D01*
X14749491Y-12216388D02*
X14739967Y-12235436D01*
X14739967Y-12235436D02*
X14730443Y-12244960D01*
X14730443Y-12244960D02*
X14711396Y-12254484D01*
X14711396Y-12254484D02*
X14673301Y-12254484D01*
X14673301Y-12254484D02*
X14654253Y-12244960D01*
X14835205Y-12235436D02*
X14844729Y-12244960D01*
X14844729Y-12244960D02*
X14835205Y-12254484D01*
X14835205Y-12254484D02*
X14825682Y-12244960D01*
X14825682Y-12244960D02*
X14835205Y-12235436D01*
X14835205Y-12235436D02*
X14835205Y-12254484D01*
X14835205Y-12130674D02*
X14844729Y-12140198D01*
X14844729Y-12140198D02*
X14835205Y-12149722D01*
X14835205Y-12149722D02*
X14825682Y-12140198D01*
X14825682Y-12140198D02*
X14835205Y-12130674D01*
X14835205Y-12130674D02*
X14835205Y-12149722D01*
M02*
