M48
; DRILL file {KiCad 9.0.4} date 2025-10-06T20:24:09-0600
; FORMAT={-:-/ absolute / metric / decimal}
; #@! TF.CreationDate,2025-10-06T20:24:09-06:00
; #@! TF.GenerationSoftware,Kicad,Pcbnew,9.0.4
; #@! TF.FileFunction,Plated,1,2,PTH
FMAT,2
METRIC
; #@! TA.AperFunction,Plated,PTH,ViaDrill
T1C0.400
; #@! TA.AperFunction,Plated,PTH,ComponentDrill
T2C0.800
; #@! TA.AperFunction,Plated,PTH,ComponentDrill
T3C1.000
%
G90
G05
T1
X140.97Y-106.68
X142.24Y-106.68
T2
X138.43Y-88.9
X142.24Y-82.55
X148.59Y-88.9
X152.4Y-82.55
X161.29Y-72.39
X161.29Y-74.93
X161.29Y-77.47
X161.29Y-80.01
X161.29Y-82.55
X161.29Y-85.09
X161.29Y-87.63
X161.29Y-90.17
X161.29Y-92.71
X161.29Y-95.25
X161.29Y-97.79
X161.29Y-100.33
X161.29Y-102.87
X161.29Y-105.41
X161.29Y-107.95
X186.69Y-72.39
X186.69Y-74.93
X186.69Y-77.47
X186.69Y-80.01
X186.69Y-82.55
X186.69Y-85.09
X186.69Y-87.63
X186.69Y-90.17
X186.69Y-92.71
X186.69Y-95.25
X186.69Y-97.79
X186.69Y-100.33
X186.69Y-102.87
X186.69Y-105.41
X186.69Y-107.95
T3
X135.89Y-53.34
X135.89Y-55.88
X135.89Y-58.42
X135.89Y-60.96
X135.89Y-63.5
X135.89Y-66.04
X135.89Y-68.58
X135.89Y-71.12
X135.89Y-73.66
X135.89Y-76.2
X138.43Y-101.6
X138.43Y-104.14
X138.43Y-106.68
X138.43Y-109.22
X145.435Y-114.23
X147.975Y-114.23
X150.515Y-114.23
X153.055Y-114.23
X153.67Y-53.34
X155.595Y-114.23
X156.21Y-53.34
X158.75Y-53.34
X161.29Y-53.34
X163.83Y-53.34
X166.37Y-53.34
X189.23Y-53.34
X189.23Y-55.88
X189.23Y-58.42
X189.23Y-60.96
M30
